HIERARCHY
ROOT Root
{
	OFFSET 0.00000 0.00000 0.00000
	CHANNELS 6 Xposition Yposition Zposition Zrotation Xrotation Yrotation
	JOINT Hips
	{
		OFFSET 0 0 0	
		CHANNELS 3 Zrotation Xrotation Yrotation
		JOINT Spine
		{
			OFFSET 0 4 0	
			CHANNELS 3 Zrotation Xrotation Yrotation
			JOINT Spine1
			{
				OFFSET 0 19.4 0	
				CHANNELS 3 Zrotation Xrotation Yrotation
				JOINT Spine2
				{
					OFFSET 0 16.6 0	
					CHANNELS 3 Zrotation Xrotation Yrotation
					JOINT LeftCollar
					{
						OFFSET 0 10 0	
						CHANNELS 3 Zrotation Xrotation Yrotation
						JOINT LeftArm
						{
							OFFSET 15.6 -2 3	
							CHANNELS 3 Zrotation Xrotation Yrotation
							JOINT LeftForeArm
							{
								OFFSET 3.5 -27 -1	
								CHANNELS 3 Zrotation Xrotation Yrotation
								JOINT LeftHand
								{
									OFFSET 1 -27 1	
									CHANNELS 3 Zrotation Xrotation Yrotation
									End Site
									{
										OFFSET 0 -15 0
									}
								}
							}
						}
					}
					JOINT RightCollar
					{
						OFFSET 0 10 0	
						CHANNELS 3 Zrotation Xrotation Yrotation
						JOINT RightArm
						{
							OFFSET -15.6 -2 3	
							CHANNELS 3 Zrotation Xrotation Yrotation
							JOINT RightForeArm
							{
								OFFSET -3.5 -27 -1	
								CHANNELS 3 Zrotation Xrotation Yrotation
								JOINT RightHand
								{
									OFFSET -1 -27 1	
									CHANNELS 3 Zrotation Xrotation Yrotation
									End Site
									{
										OFFSET 0 -15 0
									}
								}
							}
						}
					}
					JOINT Neck
					{
						OFFSET 0 10 0	
						CHANNELS 3 Zrotation Xrotation Yrotation
						JOINT Head
						{
							OFFSET 0 12.7 3	
							CHANNELS 3 Zrotation Xrotation Yrotation
							End Site
							{
								OFFSET 0 12.7 3
							}
						}
					}
				}
			}
		}
	}
	JOINT LeftHip
	{
		OFFSET 0 0 0	
		CHANNELS 3 Zrotation Xrotation Yrotation
		JOINT LeftUpLeg
		{
			OFFSET 8.8 -6 0	
			CHANNELS 3 Zrotation Xrotation Yrotation
			JOINT LeftLeg
			{
				OFFSET 0 -39 2	
				CHANNELS 3 Zrotation Xrotation Yrotation
				JOINT LeftFoot
				{
					OFFSET 0 -43 -2	
					CHANNELS 3 Zrotation Xrotation Yrotation
					JOINT LeftFootFront
					{
						OFFSET 0 -7 8.5	
						CHANNELS 3 Zrotation Xrotation Yrotation
						End Site
						{
							OFFSET 0 -0.5 9
						}
					}
				}
				JOINT LeftHeel
				{
					OFFSET 0 -43 -2	
					CHANNELS 3 Zrotation Xrotation Yrotation
					End Site
					{
						OFFSET 0 -7.5 -5
					}
				}
			}
		}
	}
	JOINT RightHip
	{
		OFFSET 0 0 0	
		CHANNELS 3 Zrotation Xrotation Yrotation
		JOINT RightUpLeg
		{
			OFFSET -8.8 -6 0	
			CHANNELS 3 Zrotation Xrotation Yrotation
			JOINT RightLeg
			{
				OFFSET 0 -39 2	
				CHANNELS 3 Zrotation Xrotation Yrotation
				JOINT RightFoot
				{
					OFFSET 0 -43 -2	
					CHANNELS 3 Zrotation Xrotation Yrotation
					JOINT RightFootFront
					{
						OFFSET 0 -7 8.5	
						CHANNELS 3 Zrotation Xrotation Yrotation
						End Site
						{
							OFFSET 0 -0.5 9
						}
					}
				}
				JOINT RightHeel
				{
					OFFSET 0 -43 -2	
					CHANNELS 3 Zrotation Xrotation Yrotation
					End Site
					{
						OFFSET 0 -7.5 -5
					}
				}
			}
		}
	}
}
MOTION
Frames: 12
Frame Time: 0.05
0 95.5 0 -0 0 -0 -0 0 -0 -0 0 -0 -0.91192 10.991 2.9269 -0 0 -0 -0 0 -0 14.1 -19.539 -3.6871 -54.825 -44.217 -73.184 -0 0 -0 -0 0 -0 -13.156 -43.15 7.9204 -99.388 -4.5017 -62.81 -0 0 -0 -1.9379 -22.54 2.3871 -1.9379 -22.54 2.3871 -0 0 -0 -0 0 -0 -0 0 -0 -0 0 -0 -0 0 -0 -0 0 -0 -0 0 -0 -0 0 -0 -0 0 -0 -0 0 -0 -0 0 -0 -0 0 -0 
0 95.5 0 -0 0 -0 -0 0 -0 -0 0 -0 -1.2197 10.54 3.2774 -0 0 -0 -0 0 -0 14.166 -20.304 -3.5532 -59.42 -44.65 -75.559 -0 0 -0 -0 0 -0 -12.682 -42.929 7.5075 -100.13 -5.0596 -62.889 -0 0 -0 -1.7096 -22.303 2.2063 -1.7096 -22.303 2.2063 -0 0 -0 -0 0 -0 -0 0 -0 -0 0 -0 -0 0 -0 -0 0 -0 -0 0 -0 -0 0 -0 -0 0 -0 -0 0 -0 -0 0 -0 -0 0 -0 
0 95.5 0 -0 0 -0 -0 0 -0 -0 0 -0 -1.4772 10.295 3.4414 -0 0 -0 -0 0 -0 14.341 -21.407 -3.1026 -64.465 -45.284 -78.201 -0 0 -0 -0 0 -0 -12.106 -42.896 7.3972 -100.71 -5.6438 -62.877 -0 0 -0 -1.5345 -22.236 2.2198 -1.5345 -22.236 2.2198 -0 0 -0 -0 0 -0 -0 0 -0 -0 0 -0 -0 0 -0 -0 0 -0 -0 0 -0 -0 0 -0 -0 0 -0 -0 0 -0 -0 0 -0 -0 0 -0 
0 95.5 0 -0 0 -0 -0 0 -0 -0 0 -0 -1.5168 9.9206 3.4122 -0 0 -0 -0 0 -0 14.407 -22.092 -2.666 -70.23 -46.614 -82.171 -0 0 -0 -0 0 -0 -11.683 -42.833 7.6187 -101.01 -6.2286 -62.52 -0 0 -0 -1.3717 -22.149 2.4139 -1.3717 -22.149 2.4139 -0 0 -0 -0 0 -0 -0 0 -0 -0 0 -0 -0 0 -0 -0 0 -0 -0 0 -0 -0 0 -0 -0 0 -0 -0 0 -0 -0 0 -0 -0 0 -0 
0 95.5 0 -0 0 -0 -0 0 -0 -0 0 -0 -1.2808 9.4134 3.5075 -0 0 -0 -0 0 -0 14.104 -22.421 -2.5572 -76.326 -48.776 -87.929 -0 0 -0 -0 0 -0 -11.804 -42.629 7.6249 -101.08 -6.7432 -62.128 -0 0 -0 -1.3322 -22.002 2.559 -1.3322 -22.002 2.559 -0 0 -0 -0 0 -0 -0 0 -0 -0 0 -0 -0 0 -0 -0 0 -0 -0 0 -0 -0 0 -0 -0 0 -0 -0 0 -0 -0 0 -0 -0 0 -0 
0 95.5 0 -0 0 -0 -0 0 -0 -0 0 -0 -0.98627 9.3176 3.7739 -0 0 -0 -0 0 -0 13.81 -22.984 -2.6454 -82.502 -51.428 -94.764 -0 0 -0 -0 0 -0 -12.269 -42.708 7.2859 -101.07 -7.185 -61.901 -0 0 -0 -1.3839 -22.066 2.5496 -1.3839 -22.066 2.5496 -0 0 -0 -0 0 -0 -0 0 -0 -0 0 -0 -0 0 -0 -0 0 -0 -0 0 -0 -0 0 -0 -0 0 -0 -0 0 -0 -0 0 -0 -0 0 -0 
0 95.5 0 -0 0 -0 -0 0 -0 -0 0 -0 -0.99178 9.3022 4.0114 -0 0 -0 -0 0 -0 13.949 -23.538 -2.3889 -88.602 -53.867 -102.41 -0 0 -0 -0 0 -0 -12.325 -42.822 7.1263 -101.06 -7.5363 -61.826 -0 0 -0 -1.329 -22.17 2.4611 -1.329 -22.17 2.4611 -0 0 -0 -0 0 -0 -0 0 -0 -0 0 -0 -0 0 -0 -0 0 -0 -0 0 -0 -0 0 -0 -0 0 -0 -0 0 -0 -0 0 -0 -0 0 -0 
0 95.5 0 -0 0 -0 -0 0 -0 -0 0 -0 -1.2 9.1886 4.1527 -0 0 -0 -0 0 -0 14.321 -23.88 -1.688 -94.351 -55.93 -109.86 -0 0 -0 -0 0 -0 -11.988 -42.863 7.258 -101.07 -7.844 -61.831 -0 0 -0 -1.2162 -22.199 2.3306 -1.2162 -22.199 2.3306 -0 0 -0 -0 0 -0 -0 0 -0 -0 0 -0 -0 0 -0 -0 0 -0 -0 0 -0 -0 0 -0 -0 0 -0 -0 0 -0 -0 0 -0 -0 0 -0 
0 95.5 0 -0 0 -0 -0 0 -0 -0 0 -0 -1.1892 8.9297 4.0585 -0 0 -0 -0 0 -0 14.446 -23.717 -0.98141 -97.3 -57.966 -115.14 -0 0 -0 -0 0 -0 -11.607 -42.817 7.8136 -101.12 -8.1366 -61.785 -0 0 -0 -1.2317 -22.134 2.256 -1.2317 -22.134 2.256 -0 0 -0 -0 0 -0 -0 0 -0 -0 0 -0 -0 0 -0 -0 0 -0 -0 0 -0 -0 0 -0 -0 0 -0 -0 0 -0 -0 0 -0 -0 0 -0 
0 95.5 0 -0 0 -0 -0 0 -0 -0 0 -0 -1.1335 8.8272 3.821 -0 0 -0 -0 0 -0 14.368 -23.433 -0.70149 -97.436 -60.361 -117.76 -0 0 -0 -0 0 -0 -11.137 -43.006 8.537 -101.31 -8.5473 -61.718 -0 0 -0 -1.2933 -22.157 2.122 -1.2933 -22.157 2.122 -0 0 -0 -0 0 -0 -0 0 -0 -0 0 -0 -0 0 -0 -0 0 -0 -0 0 -0 -0 0 -0 -0 0 -0 -0 0 -0 -0 0 -0 -0 0 -0 
0 95.5 0 -0 0 -0 -0 0 -0 -0 0 -0 -1.0755 8.8935 3.6317 -0 0 -0 -0 0 -0 14.172 -23.166 -0.94704 -96.551 -62.788 -118.96 -0 0 -0 -0 0 -0 -10.602 -43.482 9.1102 -101.81 -9.3263 -61.93 -0 0 -0 -1.3588 -22.253 1.83 -1.3588 -22.253 1.83 -0 0 -0 -0 0 -0 -0 0 -0 -0 0 -0 -0 0 -0 -0 0 -0 -0 0 -0 -0 0 -0 -0 0 -0 -0 0 -0 -0 0 -0 -0 0 -0 
0 95.5 0 -0 0 -0 -0 0 -0 -0 0 -0 -0.98796 8.9633 3.4904 -0 0 -0 -0 0 -0 14.047 -22.923 -1.1515 -95.206 -64.498 -119.56 -0 0 -0 -0 0 -0 -9.7758 -44.174 9.8326 -102.68 -10.512 -62.151 -0 0 -0 -1.4116 -22.313 1.4707 -1.4116 -22.313 1.4707 -0 0 -0 -0 0 -0 -0 0 -0 -0 0 -0 -0 0 -0 -0 0 -0 -0 0 -0 -0 0 -0 -0 0 -0 -0 0 -0 -0 0 -0 -0 0 -0 
